# xmcd CD database file
#
# Track frame offsets:
#	150
#	10070
#	29002
#	36065
#	46262
#	55920
#	64840
#	74857
#	87020
#	98457
#	109252
#	120527
#	131180
#	143567
#	155302
#	162320
#	173047
#	181882
#	190667
#	201082
#	211037
#	218665
#	228177
#
# Disc length: 3174 seconds
#
# Revision: 1
# Processed by: cddbd v1.4PL0 Copyright (c) Steve Scherf et al.
# Submitted via: Feurio! 1.66 - http://www.feurio.com
#
DISCID=370c6417
DTITLE=Waylon Jennings - Clovis To Phoenix
DYEAR=1995
DGENRE=Country
TTITLE0=My Baby Walks All Over Me (Original Version)
TTITLE1=The Stage (Stars In Heaven)
TTITLE2=Another Blue Day (Original Version)
TTITLE3=My World
TTITLE4=Never Again (Original Version)
TTITLE5=Jole Blon
TTITLE6=When Sin Stops (Original Version)
TTITLE7=Crying
TTITLE8=Sally Was A Good Ole Girl
TTITLE9=Burning Memories
TTITLE10=Big Mamou
TTITLE11=Money (That's What I Want) (Vocal: Gerald W. Gropp)
TTITLE12=Don't Think Twice, It's All Right
TTITLE13=Dream Baby (How Long Must I Dream)
TTITLE14=It's So Easy
TTITLE15=Lorena (Vocal: Paul E. Foster)
TTITLE16=Love's Gonna Live Here
TTITLE17=Abilene
TTITLE18=White Lightnin'
TTITLE19=My Baby Walks All Over Me (Alternate Mix)
TTITLE20=Another Blue Day (Alternate Take)
TTITLE21=Never Again (Alternate Take)
TTITLE22=When Sin Stops (Alternate Take)
EXTD=(c)1995 ZU-ZAZZ/ Bear Family Records Germany\r\nupc 4000127020215
EXTT0=
EXTT1=
EXTT2=
EXTT3=
EXTT4=
EXTT5=
EXTT6=
EXTT7=
EXTT8=
EXTT9=
EXTT10=
EXTT11=
EXTT12=
EXTT13=
EXTT14=
EXTT15=
EXTT16=
EXTT17=
EXTT18=
EXTT19=
EXTT20=
EXTT21=
EXTT22=
PLAYORDER=
